<svg width="240" height="277" viewBox="0 0 240 277" fill="none" xmlns="http://www.w3.org/2000/svg">
<path d="M150.057 25.348C210.464 74.8822 237.39 119.22 237.39 194.192C237.39 250.473 176.023 273.761 120.946 273.761C112.447 273.761 103.983 273.114 95.7168 271.827M150.057 25.348C140.097 17.1806 133.002 12.871 120.946 4C35.091 63.4066 -5.55989 126.266 4.50295 194.192C11.0678 238.505 50.4172 264.775 95.7168 271.827M150.057 25.348C149.793 45.8779 145.9 61.4496 136.472 79.6885M136.472 79.6885C112.898 84.0104 87.9539 113.943 87.9539 137.91C87.9539 174.784 109.302 185.404 109.302 176.725C109.302 161.199 113.183 151.495 126.768 137.91C130.65 134.029 128.269 115.319 130.65 101.036C132.591 89.3921 144.235 83.8064 144.235 83.8064M136.472 79.6885C139.301 80.6315 141.888 82.0286 144.235 83.8064M95.7168 271.827C95.7168 271.827 83.3423 240.731 82.1317 221.362C80.191 190.31 95.7168 196.779 132.591 184.488C166.478 173.192 170.862 103.981 144.235 83.8064" stroke="white" stroke-width="5"/>
</svg>
